#N canvas 146.0 122.0 844.0 572.0  10;
#X obj 381.0 220.0 MAX_MSP  ;
#X msg 435.0 62.0 2 ;
#X msg 381.0 62.0 2 ;
#X obj 430.0 128.0 +  ;
#X obj 381.0 182.0 -  ;
#X obj 381.0 128.0 +  ;
#X connect 5 0 4 0 ;
#X connect 4 0 0 0 ;
#X connect 3 0 4 1 ;
#X connect 2 0 5 0 ;
#X connect 2 0 3 0 ;
#X connect 1 0 5 1 ;
#X connect 1 0 3 1 ;
